# xmcd
#
# Track frame offsets:
#	150
#	17595
#	45338
#	64478
#	91778
#	101288
#	116648
#	144248
#	176716
#	195736
#	237331
#
# Disc length: 3723 seconds
# Revision: 0
# Processed by: cddbd v1.5.2PL0 Copyright (c) Steve Scherf et al.
# Submitted via: dBpowerAMP V12.0
#
DISCID=8a0e890b
DTITLE=AG Weinberger - Mighty Business
DYEAR=2016
DGENRE=Blues
TTITLE0=Baby Please Don't Go
TTITLE1=Try To Get Into The Middle Of The Real
TTITLE2=I Can't Get Enough
TTITLE3=Mother Blues
TTITLE4=Cissy Strut
TTITLE5=Sweet Little Number
TTITLE6=Standin' Around Cryin'
TTITLE7=Billie's Bounce
TTITLE8=The Blues Had A Baby And They Named It Rock'n Roll
TTITLE9=Ain't Nobody's Business
TTITLE10=Take Me To The Highway
EXTD=
EXTT0=
EXTT1=
EXTT2=
EXTT3=
EXTT4=
EXTT5=
EXTT6=
EXTT7=
EXTT8=
EXTT9=
EXTT10=
PLAYORDER=
